# Tiled2Unity generated file. Do not modify by hand.
# Wavefront file for 'Map2_mesh_0002.obj'

# Vertices (Count = 188)
v -173 -52 0
v -174 -52 0
v -174 -51 0
v -173 -51 0
v -174 -52 0
v -175 -52 0
v -175 -51 0
v -174 -51 0
v -175 -52 0
v -176 -52 0
v -176 -51 0
v -175 -51 0
v -90 -53 0
v -91 -53 0
v -91 -52 0
v -90 -52 0
v -90 -54 0
v -91 -54 0
v -91 -53 0
v -90 -53 0
v -91 -54 0
v -92 -54 0
v -92 -53 0
v -91 -53 0
v -203 -55 0
v -204 -55 0
v -204 -54 0
v -203 -54 0
v -203 -56 0
v -204 -56 0
v -204 -55 0
v -203 -55 0
v -204 -56 0
v -205 -56 0
v -205 -55 0
v -204 -55 0
v -39 -59 0
v -40 -59 0
v -40 -58 0
v -39 -58 0
v -40 -59 0
v -41 -59 0
v -41 -58 0
v -40 -58 0
v -41 -59 0
v -42 -59 0
v -42 -58 0
v -41 -58 0
v -42 -59 0
v -43 -59 0
v -43 -58 0
v -42 -58 0
v -135 -59 0
v -136 -59 0
v -136 -58 0
v -135 -58 0
v -135 -60 0
v -136 -60 0
v -136 -59 0
v -135 -59 0
v -136 -60 0
v -137 -60 0
v -137 -59 0
v -136 -59 0
v -148 -60 0
v -149 -60 0
v -149 -59 0
v -148 -59 0
v -149 -60 0
v -150 -60 0
v -150 -59 0
v -149 -59 0
v -150 -60 0
v -151 -60 0
v -151 -59 0
v -150 -59 0
v -151 -60 0
v -152 -60 0
v -152 -59 0
v -151 -59 0
v -14 -62 0
v -15 -62 0
v -15 -61 0
v -14 -61 0
v -15 -62 0
v -16 -62 0
v -16 -61 0
v -15 -61 0
v -16 -62 0
v -17 -62 0
v -17 -61 0
v -16 -61 0
v -98 -62 0
v -99 -62 0
v -99 -61 0
v -98 -61 0
v -98 -63 0
v -99 -63 0
v -99 -62 0
v -98 -62 0
v -99 -63 0
v -100 -63 0
v -100 -62 0
v -99 -62 0
v -66 -64 0
v -67 -64 0
v -67 -63 0
v -66 -63 0
v -67 -64 0
v -68 -64 0
v -68 -63 0
v -67 -63 0
v -68 -64 0
v -69 -64 0
v -69 -63 0
v -68 -63 0
v -112 -64 0
v -113 -64 0
v -113 -63 0
v -112 -63 0
v -113 -64 0
v -114 -64 0
v -114 -63 0
v -113 -63 0
v -114 -64 0
v -115 -64 0
v -115 -63 0
v -114 -63 0
v -115 -64 0
v -116 -64 0
v -116 -63 0
v -115 -63 0
v -116 -64 0
v -117 -64 0
v -117 -63 0
v -116 -63 0
v -117 -64 0
v -118 -64 0
v -118 -63 0
v -117 -63 0
v -118 -64 0
v -119 -64 0
v -119 -63 0
v -118 -63 0
v -28 -65 0
v -29 -65 0
v -29 -64 0
v -28 -64 0
v -28 -66 0
v -29 -66 0
v -29 -65 0
v -28 -65 0
v -29 -66 0
v -30 -66 0
v -30 -65 0
v -29 -65 0
v -274 -66 0
v -275 -66 0
v -275 -65 0
v -274 -65 0
v -275 -66 0
v -276 -66 0
v -276 -65 0
v -275 -65 0
v -276 -66 0
v -277 -66 0
v -277 -65 0
v -276 -65 0
v -274 -67 0
v -275 -67 0
v -275 -66 0
v -274 -66 0
v -275 -67 0
v -276 -67 0
v -276 -66 0
v -275 -66 0
v -276 -67 0
v -277 -67 0
v -277 -66 0
v -276 -66 0
v -274 -68 0
v -275 -68 0
v -275 -67 0
v -274 -67 0
v -276 -68 0
v -277 -68 0
v -277 -67 0
v -276 -67 0

# Texture cooridinates (Count = 27)
vt 0 0
vt 0.125 0
vt 0.125 0.1666667
vt 0 0.1666667
vt 0.25 0
vt 0.25 0.1666667
vt 0.375 0
vt 0.375 0.1666667
vt 0.75 0.3333333
vt 0.875 0.3333333
vt 0.875 0.5
vt 0.75 0.5
vt 0.75 0.1666667
vt 0.875 0.1666667
vt 1 0.1666667
vt 1 0.3333333
vt 0.625 0.6666666
vt 0.75 0.6666666
vt 0.75 0.8333333
vt 0.625 0.8333333
vt 0.875 0.6666666
vt 0.875 0.8333333
vt 1 0.6666666
vt 1 0.8333333
vt 0.625 0.5
vt 1 0.5
vt 0.625 0.3333333

# Normal
vn 0 0 -1

# Mesh description
g Map2_mesh_0002

# Faces
f 1/1/1 2/2/1 3/3/1 4/4/1
f 5/2/1 6/5/1 7/6/1 8/3/1
f 9/5/1 10/7/1 11/8/1 12/6/1
f 13/9/1 14/10/1 15/11/1 16/12/1
f 17/13/1 18/14/1 19/10/1 20/9/1
f 21/14/1 22/15/1 23/16/1 24/10/1
f 25/9/1 26/10/1 27/11/1 28/12/1
f 29/13/1 30/14/1 31/10/1 32/9/1
f 33/14/1 34/15/1 35/16/1 36/10/1
f 37/14/1 38/15/1 39/16/1 40/10/1
f 41/1/1 42/2/1 43/3/1 44/4/1
f 45/2/1 46/5/1 47/6/1 48/3/1
f 49/5/1 50/7/1 51/8/1 52/6/1
f 53/9/1 54/10/1 55/11/1 56/12/1
f 57/13/1 58/14/1 59/10/1 60/9/1
f 61/14/1 62/15/1 63/16/1 64/10/1
f 65/1/1 66/2/1 67/3/1 68/4/1
f 69/2/1 70/5/1 71/6/1 72/3/1
f 73/2/1 74/5/1 75/6/1 76/3/1
f 77/5/1 78/7/1 79/8/1 80/6/1
f 81/1/1 82/2/1 83/3/1 84/4/1
f 85/2/1 86/5/1 87/6/1 88/3/1
f 89/5/1 90/7/1 91/8/1 92/6/1
f 93/9/1 94/10/1 95/11/1 96/12/1
f 97/13/1 98/14/1 99/10/1 100/9/1
f 101/14/1 102/15/1 103/16/1 104/10/1
f 105/1/1 106/2/1 107/3/1 108/4/1
f 109/2/1 110/5/1 111/6/1 112/3/1
f 113/5/1 114/7/1 115/8/1 116/6/1
f 117/1/1 118/2/1 119/3/1 120/4/1
f 121/2/1 122/5/1 123/6/1 124/3/1
f 125/2/1 126/5/1 127/6/1 128/3/1
f 129/2/1 130/5/1 131/6/1 132/3/1
f 133/2/1 134/5/1 135/6/1 136/3/1
f 137/2/1 138/5/1 139/6/1 140/3/1
f 141/5/1 142/7/1 143/8/1 144/6/1
f 145/9/1 146/10/1 147/11/1 148/12/1
f 149/13/1 150/14/1 151/10/1 152/9/1
f 153/14/1 154/15/1 155/16/1 156/10/1
f 157/17/1 158/18/1 159/19/1 160/20/1
f 161/18/1 162/21/1 163/22/1 164/19/1
f 165/21/1 166/23/1 167/24/1 168/22/1
f 169/25/1 170/12/1 171/18/1 172/17/1
f 173/12/1 174/11/1 175/21/1 176/18/1
f 177/11/1 178/26/1 179/23/1 180/21/1
f 181/27/1 182/9/1 183/12/1 184/25/1
f 185/10/1 186/16/1 187/26/1 188/11/1

