# Tiled2Unity generated file. Do not modify by hand.
# Wavefront file for 'Map2_mesh_0003.obj'

# Vertices (Count = 496)
v -173 -52 0
v -174 -52 0
v -174 -51 0
v -173 -51 0
v -174 -52 0
v -175 -52 0
v -175 -51 0
v -174 -51 0
v -175 -52 0
v -176 -52 0
v -176 -51 0
v -175 -51 0
v -90 -53 0
v -91 -53 0
v -91 -52 0
v -90 -52 0
v -90 -54 0
v -91 -54 0
v -91 -53 0
v -90 -53 0
v -91 -54 0
v -92 -54 0
v -92 -53 0
v -91 -53 0
v -203 -55 0
v -204 -55 0
v -204 -54 0
v -203 -54 0
v -203 -56 0
v -204 -56 0
v -204 -55 0
v -203 -55 0
v -204 -56 0
v -205 -56 0
v -205 -55 0
v -204 -55 0
v -49 -57 0
v -50 -57 0
v -50 -56 0
v -49 -56 0
v -50 -57 0
v -51 -57 0
v -51 -56 0
v -50 -56 0
v -51 -57 0
v -52 -57 0
v -52 -56 0
v -51 -56 0
v -52 -57 0
v -53 -57 0
v -53 -56 0
v -52 -56 0
v -53 -57 0
v -54 -57 0
v -54 -56 0
v -53 -56 0
v -135 -59 0
v -136 -59 0
v -136 -58 0
v -135 -58 0
v -135 -60 0
v -136 -60 0
v -136 -59 0
v -135 -59 0
v -136 -60 0
v -137 -60 0
v -137 -59 0
v -136 -59 0
v -148 -60 0
v -149 -60 0
v -149 -59 0
v -148 -59 0
v -149 -60 0
v -150 -60 0
v -150 -59 0
v -149 -59 0
v -150 -60 0
v -151 -60 0
v -151 -59 0
v -150 -59 0
v -151 -60 0
v -152 -60 0
v -152 -59 0
v -151 -59 0
v -14 -62 0
v -15 -62 0
v -15 -61 0
v -14 -61 0
v -15 -62 0
v -16 -62 0
v -16 -61 0
v -15 -61 0
v -16 -62 0
v -17 -62 0
v -17 -61 0
v -16 -61 0
v -98 -62 0
v -99 -62 0
v -99 -61 0
v -98 -61 0
v -98 -63 0
v -99 -63 0
v -99 -62 0
v -98 -62 0
v -99 -63 0
v -100 -63 0
v -100 -62 0
v -99 -62 0
v -66 -64 0
v -67 -64 0
v -67 -63 0
v -66 -63 0
v -67 -64 0
v -68 -64 0
v -68 -63 0
v -67 -63 0
v -68 -64 0
v -69 -64 0
v -69 -63 0
v -68 -63 0
v -112 -64 0
v -113 -64 0
v -113 -63 0
v -112 -63 0
v -113 -64 0
v -114 -64 0
v -114 -63 0
v -113 -63 0
v -114 -64 0
v -115 -64 0
v -115 -63 0
v -114 -63 0
v -115 -64 0
v -116 -64 0
v -116 -63 0
v -115 -63 0
v -116 -64 0
v -117 -64 0
v -117 -63 0
v -116 -63 0
v -117 -64 0
v -118 -64 0
v -118 -63 0
v -117 -63 0
v -118 -64 0
v -119 -64 0
v -119 -63 0
v -118 -63 0
v -28 -65 0
v -29 -65 0
v -29 -64 0
v -28 -64 0
v -28 -66 0
v -29 -66 0
v -29 -65 0
v -28 -65 0
v -29 -66 0
v -30 -66 0
v -30 -65 0
v -29 -65 0
v -274 -66 0
v -275 -66 0
v -275 -65 0
v -274 -65 0
v -275 -66 0
v -276 -66 0
v -276 -65 0
v -275 -65 0
v -276 -66 0
v -277 -66 0
v -277 -65 0
v -276 -65 0
v -233 -67 0
v -234 -67 0
v -234 -66 0
v -233 -66 0
v -274 -67 0
v -275 -67 0
v -275 -66 0
v -274 -66 0
v -275 -67 0
v -276 -67 0
v -276 -66 0
v -275 -66 0
v -276 -67 0
v -277 -67 0
v -277 -66 0
v -276 -66 0
v -233 -68 0
v -234 -68 0
v -234 -67 0
v -233 -67 0
v -234 -68 0
v -235 -68 0
v -235 -67 0
v -234 -67 0
v -274 -68 0
v -275 -68 0
v -275 -67 0
v -274 -67 0
v -276 -68 0
v -277 -68 0
v -277 -67 0
v -276 -67 0
v -256 -71 0
v -257 -71 0
v -257 -70 0
v -256 -70 0
v -256 -72 0
v -257 -72 0
v -257 -71 0
v -256 -71 0
v -257 -72 0
v -258 -72 0
v -258 -71 0
v -257 -71 0
v -39 -75 0
v -40 -75 0
v -40 -74 0
v -39 -74 0
v -232 -75 0
v -233 -75 0
v -233 -74 0
v -232 -74 0
v -233 -75 0
v -234 -75 0
v -234 -74 0
v -233 -74 0
v -234 -75 0
v -235 -75 0
v -235 -74 0
v -234 -74 0
v -235 -75 0
v -236 -75 0
v -236 -74 0
v -235 -74 0
v -236 -75 0
v -237 -75 0
v -237 -74 0
v -236 -74 0
v -237 -75 0
v -238 -75 0
v -238 -74 0
v -237 -74 0
v -247 -75 0
v -248 -75 0
v -248 -74 0
v -247 -74 0
v -248 -75 0
v -249 -75 0
v -249 -74 0
v -248 -74 0
v -39 -76 0
v -40 -76 0
v -40 -75 0
v -39 -75 0
v -40 -76 0
v -41 -76 0
v -41 -75 0
v -40 -75 0
v -113 -76 0
v -114 -76 0
v -114 -75 0
v -113 -75 0
v -120 -76 0
v -121 -76 0
v -121 -75 0
v -120 -75 0
v -232 -76 0
v -233 -76 0
v -233 -75 0
v -232 -75 0
v -233 -76 0
v -234 -76 0
v -234 -75 0
v -233 -75 0
v -234 -76 0
v -235 -76 0
v -235 -75 0
v -234 -75 0
v -235 -76 0
v -236 -76 0
v -236 -75 0
v -235 -75 0
v -236 -76 0
v -237 -76 0
v -237 -75 0
v -236 -75 0
v -237 -76 0
v -238 -76 0
v -238 -75 0
v -237 -75 0
v -113 -77 0
v -114 -77 0
v -114 -76 0
v -113 -76 0
v -120 -77 0
v -121 -77 0
v -121 -76 0
v -120 -76 0
v -232 -77 0
v -233 -77 0
v -233 -76 0
v -232 -76 0
v -233 -77 0
v -234 -77 0
v -234 -76 0
v -233 -76 0
v -234 -77 0
v -235 -77 0
v -235 -76 0
v -234 -76 0
v -235 -77 0
v -236 -77 0
v -236 -76 0
v -235 -76 0
v -236 -77 0
v -237 -77 0
v -237 -76 0
v -236 -76 0
v -237 -77 0
v -238 -77 0
v -238 -76 0
v -237 -76 0
v -112 -78 0
v -113 -78 0
v -113 -77 0
v -112 -77 0
v -113 -78 0
v -114 -78 0
v -114 -77 0
v -113 -77 0
v -120 -78 0
v -121 -78 0
v -121 -77 0
v -120 -77 0
v -121 -78 0
v -122 -78 0
v -122 -77 0
v -121 -77 0
v -232 -78 0
v -233 -78 0
v -233 -77 0
v -232 -77 0
v -233 -78 0
v -234 -78 0
v -234 -77 0
v -233 -77 0
v -234 -78 0
v -235 -78 0
v -235 -77 0
v -234 -77 0
v -235 -78 0
v -236 -78 0
v -236 -77 0
v -235 -77 0
v -236 -78 0
v -237 -78 0
v -237 -77 0
v -236 -77 0
v -237 -78 0
v -238 -78 0
v -238 -77 0
v -237 -77 0
v -112 -79 0
v -113 -79 0
v -113 -78 0
v -112 -78 0
v -113 -79 0
v -114 -79 0
v -114 -78 0
v -113 -78 0
v -120 -79 0
v -121 -79 0
v -121 -78 0
v -120 -78 0
v -121 -79 0
v -122 -79 0
v -122 -78 0
v -121 -78 0
v -221 -79 0
v -222 -79 0
v -222 -78 0
v -221 -78 0
v -222 -79 0
v -223 -79 0
v -223 -78 0
v -222 -78 0
v -223 -79 0
v -224 -79 0
v -224 -78 0
v -223 -78 0
v -232 -79 0
v -233 -79 0
v -233 -78 0
v -232 -78 0
v -233 -79 0
v -234 -79 0
v -234 -78 0
v -233 -78 0
v -234 -79 0
v -235 -79 0
v -235 -78 0
v -234 -78 0
v -235 -79 0
v -236 -79 0
v -236 -78 0
v -235 -78 0
v -236 -79 0
v -237 -79 0
v -237 -78 0
v -236 -78 0
v -237 -79 0
v -238 -79 0
v -238 -78 0
v -237 -78 0
v -112 -80 0
v -113 -80 0
v -113 -79 0
v -112 -79 0
v -113 -80 0
v -114 -80 0
v -114 -79 0
v -113 -79 0
v -120 -80 0
v -121 -80 0
v -121 -79 0
v -120 -79 0
v -121 -80 0
v -122 -80 0
v -122 -79 0
v -121 -79 0
v -112 -81 0
v -113 -81 0
v -113 -80 0
v -112 -80 0
v -113 -81 0
v -114 -81 0
v -114 -80 0
v -113 -80 0
v -120 -81 0
v -121 -81 0
v -121 -80 0
v -120 -80 0
v -121 -81 0
v -122 -81 0
v -122 -80 0
v -121 -80 0
v -112 -82 0
v -113 -82 0
v -113 -81 0
v -112 -81 0
v -113 -82 0
v -114 -82 0
v -114 -81 0
v -113 -81 0
v -120 -82 0
v -121 -82 0
v -121 -81 0
v -120 -81 0
v -121 -82 0
v -122 -82 0
v -122 -81 0
v -121 -81 0
v -112 -83 0
v -113 -83 0
v -113 -82 0
v -112 -82 0
v -113 -83 0
v -114 -83 0
v -114 -82 0
v -113 -82 0
v -120 -83 0
v -121 -83 0
v -121 -82 0
v -120 -82 0
v -121 -83 0
v -122 -83 0
v -122 -82 0
v -121 -82 0
v -112 -84 0
v -113 -84 0
v -113 -83 0
v -112 -83 0
v -113 -84 0
v -114 -84 0
v -114 -83 0
v -113 -83 0
v -120 -84 0
v -121 -84 0
v -121 -83 0
v -120 -83 0
v -121 -84 0
v -122 -84 0
v -122 -83 0
v -121 -83 0

# Texture cooridinates (Count = 39)
vt 0 0
vt 0.125 0
vt 0.125 0.1666667
vt 0 0.1666667
vt 0.25 0
vt 0.25 0.1666667
vt 0.375 0
vt 0.375 0.1666667
vt 0.75 0.3333333
vt 0.875 0.3333333
vt 0.875 0.5
vt 0.75 0.5
vt 0.75 0.1666667
vt 0.875 0.1666667
vt 1 0.1666667
vt 1 0.3333333
vt 0.625 0.6666666
vt 0.75 0.6666666
vt 0.75 0.8333333
vt 0.625 0.8333333
vt 0.875 0.6666666
vt 0.875 0.8333333
vt 1 0.6666666
vt 1 0.8333333
vt 0.625 0.5
vt 1 0.5
vt 0.625 0.3333333
vt 0.125 0.5
vt 0.25 0.5
vt 0.25 0.6666666
vt 0.125 0.6666666
vt 0.375 0.5
vt 0.375 0.6666666
vt 0.5 0.5
vt 0.5 0.6666666
vt 0.125 0.3333333
vt 0.25 0.3333333
vt 0.375 0.3333333
vt 0.5 0.3333333

# Normal
vn 0 0 -1

# Mesh description
g Map2_mesh_0003

# Faces
f 1/1/1 2/2/1 3/3/1 4/4/1
f 5/2/1 6/5/1 7/6/1 8/3/1
f 9/5/1 10/7/1 11/8/1 12/6/1
f 13/9/1 14/10/1 15/11/1 16/12/1
f 17/13/1 18/14/1 19/10/1 20/9/1
f 21/14/1 22/15/1 23/16/1 24/10/1
f 25/9/1 26/10/1 27/11/1 28/12/1
f 29/13/1 30/14/1 31/10/1 32/9/1
f 33/14/1 34/15/1 35/16/1 36/10/1
f 37/1/1 38/2/1 39/3/1 40/4/1
f 41/2/1 42/5/1 43/6/1 44/3/1
f 45/2/1 46/5/1 47/6/1 48/3/1
f 49/2/1 50/5/1 51/6/1 52/3/1
f 53/5/1 54/7/1 55/8/1 56/6/1
f 57/9/1 58/10/1 59/11/1 60/12/1
f 61/13/1 62/14/1 63/10/1 64/9/1
f 65/14/1 66/15/1 67/16/1 68/10/1
f 69/1/1 70/2/1 71/3/1 72/4/1
f 73/2/1 74/5/1 75/6/1 76/3/1
f 77/2/1 78/5/1 79/6/1 80/3/1
f 81/5/1 82/7/1 83/8/1 84/6/1
f 85/1/1 86/2/1 87/3/1 88/4/1
f 89/2/1 90/5/1 91/6/1 92/3/1
f 93/5/1 94/7/1 95/8/1 96/6/1
f 97/9/1 98/10/1 99/11/1 100/12/1
f 101/13/1 102/14/1 103/10/1 104/9/1
f 105/14/1 106/15/1 107/16/1 108/10/1
f 109/1/1 110/2/1 111/3/1 112/4/1
f 113/2/1 114/5/1 115/6/1 116/3/1
f 117/5/1 118/7/1 119/8/1 120/6/1
f 121/1/1 122/2/1 123/3/1 124/4/1
f 125/2/1 126/5/1 127/6/1 128/3/1
f 129/2/1 130/5/1 131/6/1 132/3/1
f 133/2/1 134/5/1 135/6/1 136/3/1
f 137/2/1 138/5/1 139/6/1 140/3/1
f 141/2/1 142/5/1 143/6/1 144/3/1
f 145/5/1 146/7/1 147/8/1 148/6/1
f 149/9/1 150/10/1 151/11/1 152/12/1
f 153/13/1 154/14/1 155/10/1 156/9/1
f 157/14/1 158/15/1 159/16/1 160/10/1
f 161/17/1 162/18/1 163/19/1 164/20/1
f 165/18/1 166/21/1 167/22/1 168/19/1
f 169/21/1 170/23/1 171/24/1 172/22/1
f 173/9/1 174/10/1 175/11/1 176/12/1
f 177/25/1 178/12/1 179/18/1 180/17/1
f 181/12/1 182/11/1 183/21/1 184/18/1
f 185/11/1 186/26/1 187/23/1 188/21/1
f 189/13/1 190/14/1 191/10/1 192/9/1
f 193/14/1 194/15/1 195/16/1 196/10/1
f 197/27/1 198/9/1 199/12/1 200/25/1
f 201/10/1 202/16/1 203/26/1 204/11/1
f 205/9/1 206/10/1 207/11/1 208/12/1
f 209/13/1 210/14/1 211/10/1 212/9/1
f 213/14/1 214/15/1 215/16/1 216/10/1
f 217/9/1 218/10/1 219/11/1 220/12/1
f 221/28/1 222/29/1 223/30/1 224/31/1
f 225/29/1 226/32/1 227/33/1 228/30/1
f 229/29/1 230/32/1 231/33/1 232/30/1
f 233/29/1 234/32/1 235/33/1 236/30/1
f 237/29/1 238/32/1 239/33/1 240/30/1
f 241/32/1 242/34/1 243/35/1 244/33/1
f 245/1/1 246/2/1 247/3/1 248/4/1
f 249/5/1 250/7/1 251/8/1 252/6/1
f 253/13/1 254/14/1 255/10/1 256/9/1
f 257/14/1 258/15/1 259/16/1 260/10/1
f 261/32/1 262/34/1 263/35/1 264/33/1
f 265/28/1 266/29/1 267/30/1 268/31/1
f 269/36/1 270/37/1 271/29/1 272/28/1
f 273/37/1 274/38/1 275/32/1 276/29/1
f 277/37/1 278/38/1 279/32/1 280/29/1
f 281/37/1 282/38/1 283/32/1 284/29/1
f 285/37/1 286/38/1 287/32/1 288/29/1
f 289/38/1 290/39/1 291/34/1 292/32/1
f 293/38/1 294/39/1 295/34/1 296/32/1
f 297/36/1 298/37/1 299/29/1 300/28/1
f 301/36/1 302/37/1 303/29/1 304/28/1
f 305/37/1 306/38/1 307/32/1 308/29/1
f 309/37/1 310/38/1 311/32/1 312/29/1
f 313/37/1 314/38/1 315/32/1 316/29/1
f 317/37/1 318/38/1 319/32/1 320/29/1
f 321/38/1 322/39/1 323/34/1 324/32/1
f 325/37/1 326/38/1 327/32/1 328/29/1
f 329/38/1 330/39/1 331/34/1 332/32/1
f 333/36/1 334/37/1 335/29/1 336/28/1
f 337/37/1 338/38/1 339/32/1 340/29/1
f 341/36/1 342/37/1 343/29/1 344/28/1
f 345/37/1 346/38/1 347/32/1 348/29/1
f 349/37/1 350/38/1 351/32/1 352/29/1
f 353/37/1 354/38/1 355/32/1 356/29/1
f 357/37/1 358/38/1 359/32/1 360/29/1
f 361/38/1 362/39/1 363/34/1 364/32/1
f 365/37/1 366/38/1 367/32/1 368/29/1
f 369/38/1 370/39/1 371/34/1 372/32/1
f 373/36/1 374/37/1 375/29/1 376/28/1
f 377/37/1 378/38/1 379/32/1 380/29/1
f 381/1/1 382/2/1 383/3/1 384/4/1
f 385/2/1 386/5/1 387/6/1 388/3/1
f 389/5/1 390/7/1 391/8/1 392/6/1
f 393/36/1 394/37/1 395/29/1 396/28/1
f 397/37/1 398/38/1 399/32/1 400/29/1
f 401/37/1 402/38/1 403/32/1 404/29/1
f 405/37/1 406/38/1 407/32/1 408/29/1
f 409/37/1 410/38/1 411/32/1 412/29/1
f 413/38/1 414/39/1 415/34/1 416/32/1
f 417/37/1 418/38/1 419/32/1 420/29/1
f 421/38/1 422/39/1 423/34/1 424/32/1
f 425/36/1 426/37/1 427/29/1 428/28/1
f 429/37/1 430/38/1 431/32/1 432/29/1
f 433/37/1 434/38/1 435/32/1 436/29/1
f 437/38/1 438/39/1 439/34/1 440/32/1
f 441/36/1 442/37/1 443/29/1 444/28/1
f 445/37/1 446/38/1 447/32/1 448/29/1
f 449/37/1 450/38/1 451/32/1 452/29/1
f 453/38/1 454/39/1 455/34/1 456/32/1
f 457/36/1 458/37/1 459/29/1 460/28/1
f 461/37/1 462/38/1 463/32/1 464/29/1
f 465/37/1 466/38/1 467/32/1 468/29/1
f 469/38/1 470/39/1 471/34/1 472/32/1
f 473/36/1 474/37/1 475/29/1 476/28/1
f 477/37/1 478/38/1 479/32/1 480/29/1
f 481/37/1 482/38/1 483/32/1 484/29/1
f 485/38/1 486/39/1 487/34/1 488/32/1
f 489/36/1 490/37/1 491/29/1 492/28/1
f 493/37/1 494/38/1 495/32/1 496/29/1

