# Tiled2Unity generated file. Do not modify by hand.
# Wavefront file for 'Map1_mesh_0004.obj'

# Vertices (Count = 1020)
v -280 -69 0
v -281 -69 0
v -281 -68 0
v -280 -68 0
v -280 -70 0
v -281 -70 0
v -281 -69 0
v -280 -69 0
v -192 -71 0
v -193 -71 0
v -193 -70 0
v -192 -70 0
v -280 -71 0
v -281 -71 0
v -281 -70 0
v -280 -70 0
v -192 -72 0
v -193 -72 0
v -193 -71 0
v -192 -71 0
v -280 -72 0
v -281 -72 0
v -281 -71 0
v -280 -71 0
v -78 -73 0
v -79 -73 0
v -79 -72 0
v -78 -72 0
v -192 -73 0
v -193 -73 0
v -193 -72 0
v -192 -72 0
v -78 -74 0
v -79 -74 0
v -79 -73 0
v -78 -73 0
v -152 -74 0
v -153 -74 0
v -153 -73 0
v -152 -73 0
v -192 -74 0
v -193 -74 0
v -193 -73 0
v -192 -73 0
v -78 -75 0
v -79 -75 0
v -79 -74 0
v -78 -74 0
v -152 -75 0
v -153 -75 0
v -153 -74 0
v -152 -74 0
v -192 -75 0
v -193 -75 0
v -193 -74 0
v -192 -74 0
v -207 -75 0
v -208 -75 0
v -208 -74 0
v -207 -74 0
v -78 -76 0
v -79 -76 0
v -79 -75 0
v -78 -75 0
v -118 -76 0
v -119 -76 0
v -119 -75 0
v -118 -75 0
v -152 -76 0
v -153 -76 0
v -153 -75 0
v -152 -75 0
v -207 -76 0
v -208 -76 0
v -208 -75 0
v -207 -75 0
v -24 -77 0
v -25 -77 0
v -25 -76 0
v -24 -76 0
v -37 -77 0
v -38 -77 0
v -38 -76 0
v -37 -76 0
v -118 -77 0
v -119 -77 0
v -119 -76 0
v -118 -76 0
v -152 -77 0
v -153 -77 0
v -153 -76 0
v -152 -76 0
v -207 -77 0
v -208 -77 0
v -208 -76 0
v -207 -76 0
v -281 -77 0
v -282 -77 0
v -282 -76 0
v -281 -76 0
v -282 -77 0
v -283 -77 0
v -283 -76 0
v -282 -76 0
v -283 -77 0
v -284 -77 0
v -284 -76 0
v -283 -76 0
v -284 -77 0
v -285 -77 0
v -285 -76 0
v -284 -76 0
v -285 -77 0
v -286 -77 0
v -286 -76 0
v -285 -76 0
v -286 -77 0
v -287 -77 0
v -287 -76 0
v -286 -76 0
v -24 -78 0
v -25 -78 0
v -25 -77 0
v -24 -77 0
v -37 -78 0
v -38 -78 0
v -38 -77 0
v -37 -77 0
v -79 -78 0
v -80 -78 0
v -80 -77 0
v -79 -77 0
v -80 -78 0
v -81 -78 0
v -81 -77 0
v -80 -77 0
v -81 -78 0
v -82 -78 0
v -82 -77 0
v -81 -77 0
v -82 -78 0
v -83 -78 0
v -83 -77 0
v -82 -77 0
v -83 -78 0
v -84 -78 0
v -84 -77 0
v -83 -77 0
v -118 -78 0
v -119 -78 0
v -119 -77 0
v -118 -77 0
v -133 -78 0
v -134 -78 0
v -134 -77 0
v -133 -77 0
v -134 -78 0
v -135 -78 0
v -135 -77 0
v -134 -77 0
v -135 -78 0
v -136 -78 0
v -136 -77 0
v -135 -77 0
v -136 -78 0
v -137 -78 0
v -137 -77 0
v -136 -77 0
v -137 -78 0
v -138 -78 0
v -138 -77 0
v -137 -77 0
v -138 -78 0
v -139 -78 0
v -139 -77 0
v -138 -77 0
v -139 -78 0
v -140 -78 0
v -140 -77 0
v -139 -77 0
v -207 -78 0
v -208 -78 0
v -208 -77 0
v -207 -77 0
v -281 -78 0
v -282 -78 0
v -282 -77 0
v -281 -77 0
v -282 -78 0
v -283 -78 0
v -283 -77 0
v -282 -77 0
v -285 -78 0
v -286 -78 0
v -286 -77 0
v -285 -77 0
v -286 -78 0
v -287 -78 0
v -287 -77 0
v -286 -77 0
v -24 -79 0
v -25 -79 0
v -25 -78 0
v -24 -78 0
v -37 -79 0
v -38 -79 0
v -38 -78 0
v -37 -78 0
v -79 -79 0
v -80 -79 0
v -80 -78 0
v -79 -78 0
v -80 -79 0
v -81 -79 0
v -81 -78 0
v -80 -78 0
v -81 -79 0
v -82 -79 0
v -82 -78 0
v -81 -78 0
v -82 -79 0
v -83 -79 0
v -83 -78 0
v -82 -78 0
v -83 -79 0
v -84 -79 0
v -84 -78 0
v -83 -78 0
v -100 -79 0
v -101 -79 0
v -101 -78 0
v -100 -78 0
v -101 -79 0
v -102 -79 0
v -102 -78 0
v -101 -78 0
v -102 -79 0
v -103 -79 0
v -103 -78 0
v -102 -78 0
v -103 -79 0
v -104 -79 0
v -104 -78 0
v -103 -78 0
v -104 -79 0
v -105 -79 0
v -105 -78 0
v -104 -78 0
v -105 -79 0
v -106 -79 0
v -106 -78 0
v -105 -78 0
v -133 -79 0
v -134 -79 0
v -134 -78 0
v -133 -78 0
v -134 -79 0
v -135 -79 0
v -135 -78 0
v -134 -78 0
v -138 -79 0
v -139 -79 0
v -139 -78 0
v -138 -78 0
v -139 -79 0
v -140 -79 0
v -140 -78 0
v -139 -78 0
v -146 -79 0
v -147 -79 0
v -147 -78 0
v -146 -78 0
v -147 -79 0
v -148 -79 0
v -148 -78 0
v -147 -78 0
v -148 -79 0
v -149 -79 0
v -149 -78 0
v -148 -78 0
v -149 -79 0
v -150 -79 0
v -150 -78 0
v -149 -78 0
v -153 -79 0
v -154 -79 0
v -154 -78 0
v -153 -78 0
v -154 -79 0
v -155 -79 0
v -155 -78 0
v -154 -78 0
v -155 -79 0
v -156 -79 0
v -156 -78 0
v -155 -78 0
v -156 -79 0
v -157 -79 0
v -157 -78 0
v -156 -78 0
v -281 -79 0
v -282 -79 0
v -282 -78 0
v -281 -78 0
v -286 -79 0
v -287 -79 0
v -287 -78 0
v -286 -78 0
v -37 -80 0
v -38 -80 0
v -38 -79 0
v -37 -79 0
v -79 -80 0
v -80 -80 0
v -80 -79 0
v -79 -79 0
v -80 -80 0
v -81 -80 0
v -81 -79 0
v -80 -79 0
v -81 -80 0
v -82 -80 0
v -82 -79 0
v -81 -79 0
v -82 -80 0
v -83 -80 0
v -83 -79 0
v -82 -79 0
v -83 -80 0
v -84 -80 0
v -84 -79 0
v -83 -79 0
v -100 -80 0
v -101 -80 0
v -101 -79 0
v -100 -79 0
v -101 -80 0
v -102 -80 0
v -102 -79 0
v -101 -79 0
v -104 -80 0
v -105 -80 0
v -105 -79 0
v -104 -79 0
v -105 -80 0
v -106 -80 0
v -106 -79 0
v -105 -79 0
v -133 -80 0
v -134 -80 0
v -134 -79 0
v -133 -79 0
v -134 -80 0
v -135 -80 0
v -135 -79 0
v -134 -79 0
v -138 -80 0
v -139 -80 0
v -139 -79 0
v -138 -79 0
v -139 -80 0
v -140 -80 0
v -140 -79 0
v -139 -79 0
v -146 -80 0
v -147 -80 0
v -147 -79 0
v -146 -79 0
v -147 -80 0
v -148 -80 0
v -148 -79 0
v -147 -79 0
v -148 -80 0
v -149 -80 0
v -149 -79 0
v -148 -79 0
v -149 -80 0
v -150 -80 0
v -150 -79 0
v -149 -79 0
v -153 -80 0
v -154 -80 0
v -154 -79 0
v -153 -79 0
v -154 -80 0
v -155 -80 0
v -155 -79 0
v -154 -79 0
v -155 -80 0
v -156 -80 0
v -156 -79 0
v -155 -79 0
v -156 -80 0
v -157 -80 0
v -157 -79 0
v -156 -79 0
v -165 -80 0
v -166 -80 0
v -166 -79 0
v -165 -79 0
v -166 -80 0
v -167 -80 0
v -167 -79 0
v -166 -79 0
v -167 -80 0
v -168 -80 0
v -168 -79 0
v -167 -79 0
v -168 -80 0
v -169 -80 0
v -169 -79 0
v -168 -79 0
v -169 -80 0
v -170 -80 0
v -170 -79 0
v -169 -79 0
v -281 -80 0
v -282 -80 0
v -282 -79 0
v -281 -79 0
v -282 -80 0
v -283 -80 0
v -283 -79 0
v -282 -79 0
v -285 -80 0
v -286 -80 0
v -286 -79 0
v -285 -79 0
v -286 -80 0
v -287 -80 0
v -287 -79 0
v -286 -79 0
v -25 -81 0
v -26 -81 0
v -26 -80 0
v -25 -80 0
v -26 -81 0
v -27 -81 0
v -27 -80 0
v -26 -80 0
v -27 -81 0
v -28 -81 0
v -28 -80 0
v -27 -80 0
v -28 -81 0
v -29 -81 0
v -29 -80 0
v -28 -80 0
v -56 -81 0
v -57 -81 0
v -57 -80 0
v -56 -80 0
v -57 -81 0
v -58 -81 0
v -58 -80 0
v -57 -80 0
v -58 -81 0
v -59 -81 0
v -59 -80 0
v -58 -80 0
v -59 -81 0
v -60 -81 0
v -60 -80 0
v -59 -80 0
v -79 -81 0
v -80 -81 0
v -80 -80 0
v -79 -80 0
v -80 -81 0
v -81 -81 0
v -81 -80 0
v -80 -80 0
v -81 -81 0
v -82 -81 0
v -82 -80 0
v -81 -80 0
v -82 -81 0
v -83 -81 0
v -83 -80 0
v -82 -80 0
v -83 -81 0
v -84 -81 0
v -84 -80 0
v -83 -80 0
v -100 -81 0
v -101 -81 0
v -101 -80 0
v -100 -80 0
v -101 -81 0
v -102 -81 0
v -102 -80 0
v -101 -80 0
v -104 -81 0
v -105 -81 0
v -105 -80 0
v -104 -80 0
v -105 -81 0
v -106 -81 0
v -106 -80 0
v -105 -80 0
v -133 -81 0
v -134 -81 0
v -134 -80 0
v -133 -80 0
v -134 -81 0
v -135 -81 0
v -135 -80 0
v -134 -80 0
v -138 -81 0
v -139 -81 0
v -139 -80 0
v -138 -80 0
v -139 -81 0
v -140 -81 0
v -140 -80 0
v -139 -80 0
v -146 -81 0
v -147 -81 0
v -147 -80 0
v -146 -80 0
v -147 -81 0
v -148 -81 0
v -148 -80 0
v -147 -80 0
v -148 -81 0
v -149 -81 0
v -149 -80 0
v -148 -80 0
v -149 -81 0
v -150 -81 0
v -150 -80 0
v -149 -80 0
v -153 -81 0
v -154 -81 0
v -154 -80 0
v -153 -80 0
v -154 -81 0
v -155 -81 0
v -155 -80 0
v -154 -80 0
v -155 -81 0
v -156 -81 0
v -156 -80 0
v -155 -80 0
v -156 -81 0
v -157 -81 0
v -157 -80 0
v -156 -80 0
v -165 -81 0
v -166 -81 0
v -166 -80 0
v -165 -80 0
v -166 -81 0
v -167 -81 0
v -167 -80 0
v -166 -80 0
v -167 -81 0
v -168 -81 0
v -168 -80 0
v -167 -80 0
v -168 -81 0
v -169 -81 0
v -169 -80 0
v -168 -80 0
v -169 -81 0
v -170 -81 0
v -170 -80 0
v -169 -80 0
v -281 -81 0
v -282 -81 0
v -282 -80 0
v -281 -80 0
v -282 -81 0
v -283 -81 0
v -283 -80 0
v -282 -80 0
v -285 -81 0
v -286 -81 0
v -286 -80 0
v -285 -80 0
v -286 -81 0
v -287 -81 0
v -287 -80 0
v -286 -80 0
v -25 -82 0
v -26 -82 0
v -26 -81 0
v -25 -81 0
v -26 -82 0
v -27 -82 0
v -27 -81 0
v -26 -81 0
v -27 -82 0
v -28 -82 0
v -28 -81 0
v -27 -81 0
v -28 -82 0
v -29 -82 0
v -29 -81 0
v -28 -81 0
v -56 -82 0
v -57 -82 0
v -57 -81 0
v -56 -81 0
v -57 -82 0
v -58 -82 0
v -58 -81 0
v -57 -81 0
v -58 -82 0
v -59 -82 0
v -59 -81 0
v -58 -81 0
v -59 -82 0
v -60 -82 0
v -60 -81 0
v -59 -81 0
v -100 -82 0
v -101 -82 0
v -101 -81 0
v -100 -81 0
v -101 -82 0
v -102 -82 0
v -102 -81 0
v -101 -81 0
v -104 -82 0
v -105 -82 0
v -105 -81 0
v -104 -81 0
v -105 -82 0
v -106 -82 0
v -106 -81 0
v -105 -81 0
v -133 -82 0
v -134 -82 0
v -134 -81 0
v -133 -81 0
v -134 -82 0
v -135 -82 0
v -135 -81 0
v -134 -81 0
v -138 -82 0
v -139 -82 0
v -139 -81 0
v -138 -81 0
v -139 -82 0
v -140 -82 0
v -140 -81 0
v -139 -81 0
v -146 -82 0
v -147 -82 0
v -147 -81 0
v -146 -81 0
v -147 -82 0
v -148 -82 0
v -148 -81 0
v -147 -81 0
v -148 -82 0
v -149 -82 0
v -149 -81 0
v -148 -81 0
v -149 -82 0
v -150 -82 0
v -150 -81 0
v -149 -81 0
v -153 -82 0
v -154 -82 0
v -154 -81 0
v -153 -81 0
v -154 -82 0
v -155 -82 0
v -155 -81 0
v -154 -81 0
v -155 -82 0
v -156 -82 0
v -156 -81 0
v -155 -81 0
v -156 -82 0
v -157 -82 0
v -157 -81 0
v -156 -81 0
v -165 -82 0
v -166 -82 0
v -166 -81 0
v -165 -81 0
v -166 -82 0
v -167 -82 0
v -167 -81 0
v -166 -81 0
v -167 -82 0
v -168 -82 0
v -168 -81 0
v -167 -81 0
v -168 -82 0
v -169 -82 0
v -169 -81 0
v -168 -81 0
v -169 -82 0
v -170 -82 0
v -170 -81 0
v -169 -81 0
v -281 -82 0
v -282 -82 0
v -282 -81 0
v -281 -81 0
v -282 -82 0
v -283 -82 0
v -283 -81 0
v -282 -81 0
v -285 -82 0
v -286 -82 0
v -286 -81 0
v -285 -81 0
v -286 -82 0
v -287 -82 0
v -287 -81 0
v -286 -81 0
v -25 -83 0
v -26 -83 0
v -26 -82 0
v -25 -82 0
v -26 -83 0
v -27 -83 0
v -27 -82 0
v -26 -82 0
v -27 -83 0
v -28 -83 0
v -28 -82 0
v -27 -82 0
v -28 -83 0
v -29 -83 0
v -29 -82 0
v -28 -82 0
v -38 -83 0
v -39 -83 0
v -39 -82 0
v -38 -82 0
v -39 -83 0
v -40 -83 0
v -40 -82 0
v -39 -82 0
v -40 -83 0
v -41 -83 0
v -41 -82 0
v -40 -82 0
v -41 -83 0
v -42 -83 0
v -42 -82 0
v -41 -82 0
v -42 -83 0
v -43 -83 0
v -43 -82 0
v -42 -82 0
v -43 -83 0
v -44 -83 0
v -44 -82 0
v -43 -82 0
v -100 -83 0
v -101 -83 0
v -101 -82 0
v -100 -82 0
v -101 -83 0
v -102 -83 0
v -102 -82 0
v -101 -82 0
v -104 -83 0
v -105 -83 0
v -105 -82 0
v -104 -82 0
v -105 -83 0
v -106 -83 0
v -106 -82 0
v -105 -82 0
v -133 -83 0
v -134 -83 0
v -134 -82 0
v -133 -82 0
v -134 -83 0
v -135 -83 0
v -135 -82 0
v -134 -82 0
v -138 -83 0
v -139 -83 0
v -139 -82 0
v -138 -82 0
v -139 -83 0
v -140 -83 0
v -140 -82 0
v -139 -82 0
v -146 -83 0
v -147 -83 0
v -147 -82 0
v -146 -82 0
v -147 -83 0
v -148 -83 0
v -148 -82 0
v -147 -82 0
v -148 -83 0
v -149 -83 0
v -149 -82 0
v -148 -82 0
v -149 -83 0
v -150 -83 0
v -150 -82 0
v -149 -82 0
v -153 -83 0
v -154 -83 0
v -154 -82 0
v -153 -82 0
v -154 -83 0
v -155 -83 0
v -155 -82 0
v -154 -82 0
v -155 -83 0
v -156 -83 0
v -156 -82 0
v -155 -82 0
v -156 -83 0
v -157 -83 0
v -157 -82 0
v -156 -82 0
v -165 -83 0
v -166 -83 0
v -166 -82 0
v -165 -82 0
v -166 -83 0
v -167 -83 0
v -167 -82 0
v -166 -82 0
v -167 -83 0
v -168 -83 0
v -168 -82 0
v -167 -82 0
v -168 -83 0
v -169 -83 0
v -169 -82 0
v -168 -82 0
v -169 -83 0
v -170 -83 0
v -170 -82 0
v -169 -82 0
v -281 -83 0
v -282 -83 0
v -282 -82 0
v -281 -82 0
v -282 -83 0
v -283 -83 0
v -283 -82 0
v -282 -82 0
v -285 -83 0
v -286 -83 0
v -286 -82 0
v -285 -82 0
v -286 -83 0
v -287 -83 0
v -287 -82 0
v -286 -82 0
v -38 -84 0
v -39 -84 0
v -39 -83 0
v -38 -83 0
v -39 -84 0
v -40 -84 0
v -40 -83 0
v -39 -83 0
v -40 -84 0
v -41 -84 0
v -41 -83 0
v -40 -83 0
v -41 -84 0
v -42 -84 0
v -42 -83 0
v -41 -83 0
v -42 -84 0
v -43 -84 0
v -43 -83 0
v -42 -83 0
v -43 -84 0
v -44 -84 0
v -44 -83 0
v -43 -83 0
v -100 -84 0
v -101 -84 0
v -101 -83 0
v -100 -83 0
v -101 -84 0
v -102 -84 0
v -102 -83 0
v -101 -83 0
v -104 -84 0
v -105 -84 0
v -105 -83 0
v -104 -83 0
v -105 -84 0
v -106 -84 0
v -106 -83 0
v -105 -83 0
v -119 -84 0
v -120 -84 0
v -120 -83 0
v -119 -83 0
v -120 -84 0
v -121 -84 0
v -121 -83 0
v -120 -83 0
v -121 -84 0
v -122 -84 0
v -122 -83 0
v -121 -83 0
v -122 -84 0
v -123 -84 0
v -123 -83 0
v -122 -83 0
v -133 -84 0
v -134 -84 0
v -134 -83 0
v -133 -83 0
v -134 -84 0
v -135 -84 0
v -135 -83 0
v -134 -83 0
v -138 -84 0
v -139 -84 0
v -139 -83 0
v -138 -83 0
v -139 -84 0
v -140 -84 0
v -140 -83 0
v -139 -83 0
v -146 -84 0
v -147 -84 0
v -147 -83 0
v -146 -83 0
v -147 -84 0
v -148 -84 0
v -148 -83 0
v -147 -83 0
v -148 -84 0
v -149 -84 0
v -149 -83 0
v -148 -83 0
v -149 -84 0
v -150 -84 0
v -150 -83 0
v -149 -83 0
v -153 -84 0
v -154 -84 0
v -154 -83 0
v -153 -83 0
v -154 -84 0
v -155 -84 0
v -155 -83 0
v -154 -83 0
v -155 -84 0
v -156 -84 0
v -156 -83 0
v -155 -83 0
v -156 -84 0
v -157 -84 0
v -157 -83 0
v -156 -83 0
v -165 -84 0
v -166 -84 0
v -166 -83 0
v -165 -83 0
v -166 -84 0
v -167 -84 0
v -167 -83 0
v -166 -83 0
v -167 -84 0
v -168 -84 0
v -168 -83 0
v -167 -83 0
v -168 -84 0
v -169 -84 0
v -169 -83 0
v -168 -83 0
v -169 -84 0
v -170 -84 0
v -170 -83 0
v -169 -83 0
v -281 -84 0
v -282 -84 0
v -282 -83 0
v -281 -83 0
v -282 -84 0
v -283 -84 0
v -283 -83 0
v -282 -83 0
v -285 -84 0
v -286 -84 0
v -286 -83 0
v -285 -83 0
v -286 -84 0
v -287 -84 0
v -287 -83 0
v -286 -83 0
v -38 -85 0
v -39 -85 0
v -39 -84 0
v -38 -84 0
v -39 -85 0
v -40 -85 0
v -40 -84 0
v -39 -84 0
v -40 -85 0
v -41 -85 0
v -41 -84 0
v -40 -84 0
v -41 -85 0
v -42 -85 0
v -42 -84 0
v -41 -84 0
v -42 -85 0
v -43 -85 0
v -43 -84 0
v -42 -84 0
v -43 -85 0
v -44 -85 0
v -44 -84 0
v -43 -84 0

# Texture cooridinates (Count = 24)
vt 0 0.8
vt 0.125 0.8
vt 0.125 1
vt 0 1
vt 0 0.6
vt 0.125 0.6
vt 0.5 0.8
vt 0.625 0.8
vt 0.625 1
vt 0.5 1
vt 0.5 0.6
vt 0.625 0.6
vt 0 0.4
vt 0.125 0.4
vt 0.5 0.4
vt 0.625 0.4
vt 0.25 0.4
vt 0.25 0.6
vt 0.375 0.4
vt 0.375 0.6
vt 0.125 0.2
vt 0.25 0.2
vt 0.375 0.2
vt 0.5 0.2

# Normal
vn 0 0 -1

# Mesh description
g Map1_mesh_0004

# Faces
f 1/1/1 2/2/1 3/3/1 4/4/1
f 5/5/1 6/6/1 7/2/1 8/1/1
f 9/7/1 10/8/1 11/9/1 12/10/1
f 13/5/1 14/6/1 15/2/1 16/1/1
f 17/11/1 18/12/1 19/8/1 20/7/1
f 21/13/1 22/14/1 23/6/1 24/5/1
f 25/1/1 26/2/1 27/3/1 28/4/1
f 29/11/1 30/12/1 31/8/1 32/7/1
f 33/5/1 34/6/1 35/2/1 36/1/1
f 37/1/1 38/2/1 39/3/1 40/4/1
f 41/11/1 42/12/1 43/8/1 44/7/1
f 45/5/1 46/6/1 47/2/1 48/1/1
f 49/5/1 50/6/1 51/2/1 52/1/1
f 53/15/1 54/16/1 55/12/1 56/11/1
f 57/1/1 58/2/1 59/3/1 60/4/1
f 61/13/1 62/14/1 63/6/1 64/5/1
f 65/1/1 66/2/1 67/3/1 68/4/1
f 69/5/1 70/6/1 71/2/1 72/1/1
f 73/5/1 74/6/1 75/2/1 76/1/1
f 77/1/1 78/2/1 79/3/1 80/4/1
f 81/1/1 82/2/1 83/3/1 84/4/1
f 85/5/1 86/6/1 87/2/1 88/1/1
f 89/13/1 90/14/1 91/6/1 92/5/1
f 93/5/1 94/6/1 95/2/1 96/1/1
f 97/14/1 98/17/1 99/18/1 100/6/1
f 101/17/1 102/19/1 103/20/1 104/18/1
f 105/17/1 106/19/1 107/20/1 108/18/1
f 109/17/1 110/19/1 111/20/1 112/18/1
f 113/17/1 114/19/1 115/20/1 116/18/1
f 117/19/1 118/15/1 119/11/1 120/20/1
f 121/5/1 122/6/1 123/2/1 124/1/1
f 125/5/1 126/6/1 127/2/1 128/1/1
f 129/14/1 130/17/1 131/18/1 132/6/1
f 133/17/1 134/19/1 135/20/1 136/18/1
f 137/17/1 138/19/1 139/20/1 140/18/1
f 141/17/1 142/19/1 143/20/1 144/18/1
f 145/19/1 146/15/1 147/11/1 148/20/1
f 149/13/1 150/14/1 151/6/1 152/5/1
f 153/14/1 154/17/1 155/18/1 156/6/1
f 157/17/1 158/19/1 159/20/1 160/18/1
f 161/17/1 162/19/1 163/20/1 164/18/1
f 165/17/1 166/19/1 167/20/1 168/18/1
f 169/17/1 170/19/1 171/20/1 172/18/1
f 173/17/1 174/19/1 175/20/1 176/18/1
f 177/19/1 178/15/1 179/11/1 180/20/1
f 181/13/1 182/14/1 183/6/1 184/5/1
f 185/21/1 186/22/1 187/17/1 188/14/1
f 189/22/1 190/23/1 191/19/1 192/17/1
f 193/22/1 194/23/1 195/19/1 196/17/1
f 197/23/1 198/24/1 199/15/1 200/19/1
f 201/13/1 202/14/1 203/6/1 204/5/1
f 205/5/1 206/6/1 207/2/1 208/1/1
f 209/21/1 210/22/1 211/17/1 212/14/1
f 213/22/1 214/23/1 215/19/1 216/17/1
f 217/22/1 218/23/1 219/19/1 220/17/1
f 221/22/1 222/23/1 223/19/1 224/17/1
f 225/23/1 226/24/1 227/15/1 228/19/1
f 229/14/1 230/17/1 231/18/1 232/6/1
f 233/17/1 234/19/1 235/20/1 236/18/1
f 237/17/1 238/19/1 239/20/1 240/18/1
f 241/17/1 242/19/1 243/20/1 244/18/1
f 245/17/1 246/19/1 247/20/1 248/18/1
f 249/19/1 250/15/1 251/11/1 252/20/1
f 253/21/1 254/22/1 255/17/1 256/14/1
f 257/22/1 258/23/1 259/19/1 260/17/1
f 261/22/1 262/23/1 263/19/1 264/17/1
f 265/23/1 266/24/1 267/15/1 268/19/1
f 269/14/1 270/17/1 271/18/1 272/6/1
f 273/17/1 274/19/1 275/20/1 276/18/1
f 277/17/1 278/19/1 279/20/1 280/18/1
f 281/19/1 282/15/1 283/11/1 284/20/1
f 285/14/1 286/17/1 287/18/1 288/6/1
f 289/17/1 290/19/1 291/20/1 292/18/1
f 293/17/1 294/19/1 295/20/1 296/18/1
f 297/19/1 298/15/1 299/11/1 300/20/1
f 301/21/1 302/22/1 303/17/1 304/14/1
f 305/23/1 306/24/1 307/15/1 308/19/1
f 309/13/1 310/14/1 311/6/1 312/5/1
f 313/21/1 314/22/1 315/17/1 316/14/1
f 317/22/1 318/23/1 319/19/1 320/17/1
f 321/22/1 322/23/1 323/19/1 324/17/1
f 325/22/1 326/23/1 327/19/1 328/17/1
f 329/23/1 330/24/1 331/15/1 332/19/1
f 333/21/1 334/22/1 335/17/1 336/14/1
f 337/22/1 338/23/1 339/19/1 340/17/1
f 341/22/1 342/23/1 343/19/1 344/17/1
f 345/23/1 346/24/1 347/15/1 348/19/1
f 349/21/1 350/22/1 351/17/1 352/14/1
f 353/23/1 354/24/1 355/15/1 356/19/1
f 357/21/1 358/22/1 359/17/1 360/14/1
f 361/23/1 362/24/1 363/15/1 364/19/1
f 365/21/1 366/22/1 367/17/1 368/14/1
f 369/22/1 370/23/1 371/19/1 372/17/1
f 373/22/1 374/23/1 375/19/1 376/17/1
f 377/23/1 378/24/1 379/15/1 380/19/1
f 381/21/1 382/22/1 383/17/1 384/14/1
f 385/22/1 386/23/1 387/19/1 388/17/1
f 389/22/1 390/23/1 391/19/1 392/17/1
f 393/23/1 394/24/1 395/15/1 396/19/1
f 397/14/1 398/17/1 399/18/1 400/6/1
f 401/17/1 402/19/1 403/20/1 404/18/1
f 405/17/1 406/19/1 407/20/1 408/18/1
f 409/17/1 410/19/1 411/20/1 412/18/1
f 413/19/1 414/15/1 415/11/1 416/20/1
f 417/21/1 418/22/1 419/17/1 420/14/1
f 421/23/1 422/24/1 423/15/1 424/19/1
f 425/21/1 426/22/1 427/17/1 428/14/1
f 429/23/1 430/24/1 431/15/1 432/19/1
f 433/14/1 434/17/1 435/18/1 436/6/1
f 437/17/1 438/19/1 439/20/1 440/18/1
f 441/17/1 442/19/1 443/20/1 444/18/1
f 445/19/1 446/15/1 447/11/1 448/20/1
f 449/14/1 450/17/1 451/18/1 452/6/1
f 453/17/1 454/19/1 455/20/1 456/18/1
f 457/17/1 458/19/1 459/20/1 460/18/1
f 461/19/1 462/15/1 463/11/1 464/20/1
f 465/21/1 466/22/1 467/17/1 468/14/1
f 469/22/1 470/23/1 471/19/1 472/17/1
f 473/22/1 474/23/1 475/19/1 476/17/1
f 477/22/1 478/23/1 479/19/1 480/17/1
f 481/23/1 482/24/1 483/15/1 484/19/1
f 485/21/1 486/22/1 487/17/1 488/14/1
f 489/23/1 490/24/1 491/15/1 492/19/1
f 493/21/1 494/22/1 495/17/1 496/14/1
f 497/23/1 498/24/1 499/15/1 500/19/1
f 501/21/1 502/22/1 503/17/1 504/14/1
f 505/23/1 506/24/1 507/15/1 508/19/1
f 509/21/1 510/22/1 511/17/1 512/14/1
f 513/23/1 514/24/1 515/15/1 516/19/1
f 517/21/1 518/22/1 519/17/1 520/14/1
f 521/22/1 522/23/1 523/19/1 524/17/1
f 525/22/1 526/23/1 527/19/1 528/17/1
f 529/23/1 530/24/1 531/15/1 532/19/1
f 533/21/1 534/22/1 535/17/1 536/14/1
f 537/22/1 538/23/1 539/19/1 540/17/1
f 541/22/1 542/23/1 543/19/1 544/17/1
f 545/23/1 546/24/1 547/15/1 548/19/1
f 549/21/1 550/22/1 551/17/1 552/14/1
f 553/22/1 554/23/1 555/19/1 556/17/1
f 557/22/1 558/23/1 559/19/1 560/17/1
f 561/22/1 562/23/1 563/19/1 564/17/1
f 565/23/1 566/24/1 567/15/1 568/19/1
f 569/21/1 570/22/1 571/17/1 572/14/1
f 573/23/1 574/24/1 575/15/1 576/19/1
f 577/21/1 578/22/1 579/17/1 580/14/1
f 581/23/1 582/24/1 583/15/1 584/19/1
f 585/21/1 586/22/1 587/17/1 588/14/1
f 589/22/1 590/23/1 591/19/1 592/17/1
f 593/22/1 594/23/1 595/19/1 596/17/1
f 597/23/1 598/24/1 599/15/1 600/19/1
f 601/21/1 602/22/1 603/17/1 604/14/1
f 605/22/1 606/23/1 607/19/1 608/17/1
f 609/22/1 610/23/1 611/19/1 612/17/1
f 613/23/1 614/24/1 615/15/1 616/19/1
f 617/21/1 618/22/1 619/17/1 620/14/1
f 621/23/1 622/24/1 623/15/1 624/19/1
f 625/21/1 626/22/1 627/17/1 628/14/1
f 629/23/1 630/24/1 631/15/1 632/19/1
f 633/21/1 634/22/1 635/17/1 636/14/1
f 637/23/1 638/24/1 639/15/1 640/19/1
f 641/21/1 642/22/1 643/17/1 644/14/1
f 645/23/1 646/24/1 647/15/1 648/19/1
f 649/21/1 650/22/1 651/17/1 652/14/1
f 653/22/1 654/23/1 655/19/1 656/17/1
f 657/22/1 658/23/1 659/19/1 660/17/1
f 661/23/1 662/24/1 663/15/1 664/19/1
f 665/21/1 666/22/1 667/17/1 668/14/1
f 669/22/1 670/23/1 671/19/1 672/17/1
f 673/22/1 674/23/1 675/19/1 676/17/1
f 677/23/1 678/24/1 679/15/1 680/19/1
f 681/21/1 682/22/1 683/17/1 684/14/1
f 685/22/1 686/23/1 687/19/1 688/17/1
f 689/22/1 690/23/1 691/19/1 692/17/1
f 693/22/1 694/23/1 695/19/1 696/17/1
f 697/23/1 698/24/1 699/15/1 700/19/1
f 701/21/1 702/22/1 703/17/1 704/14/1
f 705/23/1 706/24/1 707/15/1 708/19/1
f 709/21/1 710/22/1 711/17/1 712/14/1
f 713/23/1 714/24/1 715/15/1 716/19/1
f 717/21/1 718/22/1 719/17/1 720/14/1
f 721/22/1 722/23/1 723/19/1 724/17/1
f 725/22/1 726/23/1 727/19/1 728/17/1
f 729/23/1 730/24/1 731/15/1 732/19/1
f 733/14/1 734/17/1 735/18/1 736/6/1
f 737/17/1 738/19/1 739/20/1 740/18/1
f 741/17/1 742/19/1 743/20/1 744/18/1
f 745/17/1 746/19/1 747/20/1 748/18/1
f 749/17/1 750/19/1 751/20/1 752/18/1
f 753/19/1 754/15/1 755/11/1 756/20/1
f 757/21/1 758/22/1 759/17/1 760/14/1
f 761/23/1 762/24/1 763/15/1 764/19/1
f 765/21/1 766/22/1 767/17/1 768/14/1
f 769/23/1 770/24/1 771/15/1 772/19/1
f 773/21/1 774/22/1 775/17/1 776/14/1
f 777/23/1 778/24/1 779/15/1 780/19/1
f 781/21/1 782/22/1 783/17/1 784/14/1
f 785/23/1 786/24/1 787/15/1 788/19/1
f 789/21/1 790/22/1 791/17/1 792/14/1
f 793/22/1 794/23/1 795/19/1 796/17/1
f 797/22/1 798/23/1 799/19/1 800/17/1
f 801/23/1 802/24/1 803/15/1 804/19/1
f 805/21/1 806/22/1 807/17/1 808/14/1
f 809/22/1 810/23/1 811/19/1 812/17/1
f 813/22/1 814/23/1 815/19/1 816/17/1
f 817/23/1 818/24/1 819/15/1 820/19/1
f 821/21/1 822/22/1 823/17/1 824/14/1
f 825/22/1 826/23/1 827/19/1 828/17/1
f 829/22/1 830/23/1 831/19/1 832/17/1
f 833/22/1 834/23/1 835/19/1 836/17/1
f 837/23/1 838/24/1 839/15/1 840/19/1
f 841/21/1 842/22/1 843/17/1 844/14/1
f 845/23/1 846/24/1 847/15/1 848/19/1
f 849/21/1 850/22/1 851/17/1 852/14/1
f 853/23/1 854/24/1 855/15/1 856/19/1
f 857/21/1 858/22/1 859/17/1 860/14/1
f 861/22/1 862/23/1 863/19/1 864/17/1
f 865/22/1 866/23/1 867/19/1 868/17/1
f 869/22/1 870/23/1 871/19/1 872/17/1
f 873/22/1 874/23/1 875/19/1 876/17/1
f 877/23/1 878/24/1 879/15/1 880/19/1
f 881/21/1 882/22/1 883/17/1 884/14/1
f 885/23/1 886/24/1 887/15/1 888/19/1
f 889/21/1 890/22/1 891/17/1 892/14/1
f 893/23/1 894/24/1 895/15/1 896/19/1
f 897/21/1 898/22/1 899/17/1 900/14/1
f 901/22/1 902/23/1 903/19/1 904/17/1
f 905/22/1 906/23/1 907/19/1 908/17/1
f 909/23/1 910/24/1 911/15/1 912/19/1
f 913/21/1 914/22/1 915/17/1 916/14/1
f 917/23/1 918/24/1 919/15/1 920/19/1
f 921/21/1 922/22/1 923/17/1 924/14/1
f 925/23/1 926/24/1 927/15/1 928/19/1
f 929/21/1 930/22/1 931/17/1 932/14/1
f 933/22/1 934/23/1 935/19/1 936/17/1
f 937/22/1 938/23/1 939/19/1 940/17/1
f 941/23/1 942/24/1 943/15/1 944/19/1
f 945/21/1 946/22/1 947/17/1 948/14/1
f 949/22/1 950/23/1 951/19/1 952/17/1
f 953/22/1 954/23/1 955/19/1 956/17/1
f 957/23/1 958/24/1 959/15/1 960/19/1
f 961/21/1 962/22/1 963/17/1 964/14/1
f 965/22/1 966/23/1 967/19/1 968/17/1
f 969/22/1 970/23/1 971/19/1 972/17/1
f 973/22/1 974/23/1 975/19/1 976/17/1
f 977/23/1 978/24/1 979/15/1 980/19/1
f 981/21/1 982/22/1 983/17/1 984/14/1
f 985/23/1 986/24/1 987/15/1 988/19/1
f 989/21/1 990/22/1 991/17/1 992/14/1
f 993/23/1 994/24/1 995/15/1 996/19/1
f 997/21/1 998/22/1 999/17/1 1000/14/1
f 1001/22/1 1002/23/1 1003/19/1 1004/17/1
f 1005/22/1 1006/23/1 1007/19/1 1008/17/1
f 1009/22/1 1010/23/1 1011/19/1 1012/17/1
f 1013/22/1 1014/23/1 1015/19/1 1016/17/1
f 1017/23/1 1018/24/1 1019/15/1 1020/19/1

